<mxfile host="app.diagrams.net" agent="Mozilla/5.0 (Macintosh; Intel Mac OS X 10_15_7) AppleWebKit/605.1.15 (KHTML, like Gecko) Version/17.5 Safari/605.1.15" version="26.0.6">
  <diagram name="Page-1" id="eJIW4NzbdK3yvLJiVgsJ">
    <mxGraphModel dx="4841" dy="2956" grid="1" gridSize="10" guides="1" tooltips="1" connect="1" arrows="1" fold="1" page="1" pageScale="1" pageWidth="827" pageHeight="1169" math="0" shadow="0">
      <root>
        <mxCell id="0" />
        <mxCell id="1" parent="0" />
        <mxCell id="2Ezgl_Kn0kOIbZCHp2xk-232" value="" style="edgeStyle=orthogonalEdgeStyle;rounded=0;orthogonalLoop=1;jettySize=auto;html=1;entryX=1;entryY=0.5;entryDx=0;entryDy=0;strokeWidth=3;" edge="1" parent="1" source="2Ezgl_Kn0kOIbZCHp2xk-203" target="2Ezgl_Kn0kOIbZCHp2xk-231">
          <mxGeometry relative="1" as="geometry">
            <Array as="points">
              <mxPoint x="-730" y="10" />
              <mxPoint x="-730" y="10" />
            </Array>
          </mxGeometry>
        </mxCell>
        <mxCell id="2Ezgl_Kn0kOIbZCHp2xk-26" style="edgeStyle=orthogonalEdgeStyle;rounded=0;orthogonalLoop=1;jettySize=auto;html=1;entryX=0;entryY=0.5;entryDx=0;entryDy=0;" edge="1" parent="1" source="2Ezgl_Kn0kOIbZCHp2xk-1">
          <mxGeometry relative="1" as="geometry">
            <mxPoint x="655" y="320" as="targetPoint" />
          </mxGeometry>
        </mxCell>
        <mxCell id="2Ezgl_Kn0kOIbZCHp2xk-1" value="Events" style="rounded=0;whiteSpace=wrap;html=1;" vertex="1" parent="1">
          <mxGeometry x="355" y="290" width="120" height="60" as="geometry" />
        </mxCell>
        <mxCell id="2Ezgl_Kn0kOIbZCHp2xk-7" value="" style="endArrow=none;html=1;rounded=0;exitX=0.5;exitY=0;exitDx=0;exitDy=0;entryX=0.5;entryY=1;entryDx=0;entryDy=0;" edge="1" parent="1" source="2Ezgl_Kn0kOIbZCHp2xk-1" target="2Ezgl_Kn0kOIbZCHp2xk-8">
          <mxGeometry width="50" height="50" relative="1" as="geometry">
            <mxPoint x="409" y="290" as="sourcePoint" />
            <mxPoint x="405" y="230" as="targetPoint" />
          </mxGeometry>
        </mxCell>
        <mxCell id="2Ezgl_Kn0kOIbZCHp2xk-8" value="title" style="ellipse;whiteSpace=wrap;html=1;" vertex="1" parent="1">
          <mxGeometry x="165" y="230" width="80" height="40" as="geometry" />
        </mxCell>
        <mxCell id="2Ezgl_Kn0kOIbZCHp2xk-9" value="start_time" style="ellipse;whiteSpace=wrap;html=1;" vertex="1" parent="1">
          <mxGeometry x="125" y="150" width="80" height="40" as="geometry" />
        </mxCell>
        <mxCell id="2Ezgl_Kn0kOIbZCHp2xk-10" value="end_time" style="ellipse;whiteSpace=wrap;html=1;" vertex="1" parent="1">
          <mxGeometry x="235" y="180" width="80" height="40" as="geometry" />
        </mxCell>
        <mxCell id="2Ezgl_Kn0kOIbZCHp2xk-13" value="description&amp;nbsp;" style="ellipse;whiteSpace=wrap;html=1;" vertex="1" parent="1">
          <mxGeometry x="375" y="120" width="80" height="40" as="geometry" />
        </mxCell>
        <mxCell id="2Ezgl_Kn0kOIbZCHp2xk-14" value="location" style="ellipse;whiteSpace=wrap;html=1;" vertex="1" parent="1">
          <mxGeometry x="505" y="160" width="80" height="40" as="geometry" />
        </mxCell>
        <mxCell id="2Ezgl_Kn0kOIbZCHp2xk-16" value="timezone" style="ellipse;whiteSpace=wrap;html=1;" vertex="1" parent="1">
          <mxGeometry x="565" y="210" width="80" height="40" as="geometry" />
        </mxCell>
        <mxCell id="2Ezgl_Kn0kOIbZCHp2xk-17" value="Tags" style="rounded=0;whiteSpace=wrap;html=1;" vertex="1" parent="1">
          <mxGeometry x="870" y="290" width="120" height="60" as="geometry" />
        </mxCell>
        <mxCell id="2Ezgl_Kn0kOIbZCHp2xk-20" value="" style="endArrow=none;html=1;rounded=0;exitX=0.5;exitY=0;exitDx=0;exitDy=0;entryX=0.5;entryY=1;entryDx=0;entryDy=0;" edge="1" parent="1" source="2Ezgl_Kn0kOIbZCHp2xk-1" target="2Ezgl_Kn0kOIbZCHp2xk-9">
          <mxGeometry width="50" height="50" relative="1" as="geometry">
            <mxPoint x="405" y="280" as="sourcePoint" />
            <mxPoint x="455" y="230" as="targetPoint" />
          </mxGeometry>
        </mxCell>
        <mxCell id="2Ezgl_Kn0kOIbZCHp2xk-21" value="" style="endArrow=none;html=1;rounded=0;entryX=0.5;entryY=1;entryDx=0;entryDy=0;" edge="1" parent="1" target="2Ezgl_Kn0kOIbZCHp2xk-10">
          <mxGeometry width="50" height="50" relative="1" as="geometry">
            <mxPoint x="415" y="290" as="sourcePoint" />
            <mxPoint x="465" y="225" as="targetPoint" />
          </mxGeometry>
        </mxCell>
        <mxCell id="2Ezgl_Kn0kOIbZCHp2xk-22" value="" style="endArrow=none;html=1;rounded=0;entryX=0.5;entryY=1;entryDx=0;entryDy=0;exitX=0.5;exitY=0;exitDx=0;exitDy=0;" edge="1" parent="1" source="2Ezgl_Kn0kOIbZCHp2xk-1" target="2Ezgl_Kn0kOIbZCHp2xk-13">
          <mxGeometry width="50" height="50" relative="1" as="geometry">
            <mxPoint x="455" y="270" as="sourcePoint" />
            <mxPoint x="445" y="230" as="targetPoint" />
          </mxGeometry>
        </mxCell>
        <mxCell id="2Ezgl_Kn0kOIbZCHp2xk-23" value="" style="endArrow=none;html=1;rounded=0;exitX=0.5;exitY=0;exitDx=0;exitDy=0;entryX=0.5;entryY=1;entryDx=0;entryDy=0;" edge="1" parent="1" source="2Ezgl_Kn0kOIbZCHp2xk-1" target="2Ezgl_Kn0kOIbZCHp2xk-14">
          <mxGeometry width="50" height="50" relative="1" as="geometry">
            <mxPoint x="415" y="300" as="sourcePoint" />
            <mxPoint x="345" y="220" as="targetPoint" />
          </mxGeometry>
        </mxCell>
        <mxCell id="2Ezgl_Kn0kOIbZCHp2xk-25" value="" style="endArrow=none;html=1;rounded=0;exitX=0.5;exitY=0;exitDx=0;exitDy=0;entryX=0.5;entryY=1;entryDx=0;entryDy=0;" edge="1" parent="1" source="2Ezgl_Kn0kOIbZCHp2xk-1" target="2Ezgl_Kn0kOIbZCHp2xk-16">
          <mxGeometry width="50" height="50" relative="1" as="geometry">
            <mxPoint x="415" y="300" as="sourcePoint" />
            <mxPoint x="575" y="190" as="targetPoint" />
          </mxGeometry>
        </mxCell>
        <mxCell id="2Ezgl_Kn0kOIbZCHp2xk-27" value="Have" style="rhombus;whiteSpace=wrap;html=1;" vertex="1" parent="1">
          <mxGeometry x="660" y="280" width="80" height="80" as="geometry" />
        </mxCell>
        <mxCell id="2Ezgl_Kn0kOIbZCHp2xk-29" value="id" style="ellipse;whiteSpace=wrap;html=1;" vertex="1" parent="1">
          <mxGeometry x="1050" y="250" width="80" height="40" as="geometry" />
        </mxCell>
        <mxCell id="2Ezgl_Kn0kOIbZCHp2xk-30" value="name" style="ellipse;whiteSpace=wrap;html=1;" vertex="1" parent="1">
          <mxGeometry x="1050" y="300" width="80" height="40" as="geometry" />
        </mxCell>
        <mxCell id="2Ezgl_Kn0kOIbZCHp2xk-31" value="description" style="ellipse;whiteSpace=wrap;html=1;" vertex="1" parent="1">
          <mxGeometry x="1050" y="350" width="80" height="40" as="geometry" />
        </mxCell>
        <mxCell id="2Ezgl_Kn0kOIbZCHp2xk-32" value="" style="endArrow=none;html=1;rounded=0;exitX=1;exitY=0.5;exitDx=0;exitDy=0;entryX=0;entryY=0.5;entryDx=0;entryDy=0;" edge="1" parent="1" source="2Ezgl_Kn0kOIbZCHp2xk-17" target="2Ezgl_Kn0kOIbZCHp2xk-29">
          <mxGeometry width="50" height="50" relative="1" as="geometry">
            <mxPoint x="1100" y="320" as="sourcePoint" />
            <mxPoint x="1150" y="270" as="targetPoint" />
          </mxGeometry>
        </mxCell>
        <mxCell id="2Ezgl_Kn0kOIbZCHp2xk-33" value="" style="endArrow=none;html=1;rounded=0;exitX=1;exitY=0.5;exitDx=0;exitDy=0;entryX=0;entryY=0.5;entryDx=0;entryDy=0;" edge="1" parent="1" source="2Ezgl_Kn0kOIbZCHp2xk-17" target="2Ezgl_Kn0kOIbZCHp2xk-30">
          <mxGeometry width="50" height="50" relative="1" as="geometry">
            <mxPoint x="1100" y="330" as="sourcePoint" />
            <mxPoint x="1170" y="280" as="targetPoint" />
          </mxGeometry>
        </mxCell>
        <mxCell id="2Ezgl_Kn0kOIbZCHp2xk-34" value="" style="endArrow=none;html=1;rounded=0;exitX=1;exitY=0.5;exitDx=0;exitDy=0;entryX=0;entryY=0.5;entryDx=0;entryDy=0;" edge="1" parent="1" source="2Ezgl_Kn0kOIbZCHp2xk-17" target="2Ezgl_Kn0kOIbZCHp2xk-31">
          <mxGeometry width="50" height="50" relative="1" as="geometry">
            <mxPoint x="1100" y="330" as="sourcePoint" />
            <mxPoint x="1170" y="330" as="targetPoint" />
          </mxGeometry>
        </mxCell>
        <mxCell id="2Ezgl_Kn0kOIbZCHp2xk-41" value="Weather" style="ellipse;whiteSpace=wrap;html=1;" vertex="1" parent="1">
          <mxGeometry x="595" y="140" width="80" height="40" as="geometry" />
        </mxCell>
        <mxCell id="2Ezgl_Kn0kOIbZCHp2xk-42" value="" style="endArrow=none;html=1;rounded=0;entryX=0.5;entryY=1;entryDx=0;entryDy=0;exitX=0.5;exitY=0;exitDx=0;exitDy=0;" edge="1" parent="1" source="2Ezgl_Kn0kOIbZCHp2xk-1" target="2Ezgl_Kn0kOIbZCHp2xk-41">
          <mxGeometry width="50" height="50" relative="1" as="geometry">
            <mxPoint x="415" y="290" as="sourcePoint" />
            <mxPoint x="605" y="240" as="targetPoint" />
          </mxGeometry>
        </mxCell>
        <mxCell id="2Ezgl_Kn0kOIbZCHp2xk-66" value="Have" style="rhombus;whiteSpace=wrap;html=1;" vertex="1" parent="1">
          <mxGeometry x="660" y="730" width="80" height="80" as="geometry" />
        </mxCell>
        <mxCell id="2Ezgl_Kn0kOIbZCHp2xk-70" value="default" style="ellipse;whiteSpace=wrap;html=1;" vertex="1" parent="1">
          <mxGeometry x="1050" y="400" width="80" height="40" as="geometry" />
        </mxCell>
        <mxCell id="2Ezgl_Kn0kOIbZCHp2xk-71" value="" style="endArrow=none;html=1;rounded=0;exitX=1;exitY=0.5;exitDx=0;exitDy=0;entryX=0;entryY=0.5;entryDx=0;entryDy=0;" edge="1" parent="1" source="2Ezgl_Kn0kOIbZCHp2xk-17" target="2Ezgl_Kn0kOIbZCHp2xk-70">
          <mxGeometry width="50" height="50" relative="1" as="geometry">
            <mxPoint x="1000" y="330" as="sourcePoint" />
            <mxPoint x="1060" y="380" as="targetPoint" />
          </mxGeometry>
        </mxCell>
        <mxCell id="2Ezgl_Kn0kOIbZCHp2xk-73" value="..." style="ellipse;whiteSpace=wrap;html=1;" vertex="1" parent="1">
          <mxGeometry x="1050" y="200" width="80" height="40" as="geometry" />
        </mxCell>
        <mxCell id="2Ezgl_Kn0kOIbZCHp2xk-74" value="" style="endArrow=none;html=1;rounded=0;exitX=1;exitY=0.5;exitDx=0;exitDy=0;entryX=0;entryY=0.5;entryDx=0;entryDy=0;" edge="1" target="2Ezgl_Kn0kOIbZCHp2xk-73" parent="1" source="2Ezgl_Kn0kOIbZCHp2xk-17">
          <mxGeometry width="50" height="50" relative="1" as="geometry">
            <mxPoint x="990" y="260" as="sourcePoint" />
            <mxPoint x="1150" y="210" as="targetPoint" />
          </mxGeometry>
        </mxCell>
        <mxCell id="2Ezgl_Kn0kOIbZCHp2xk-108" value="Have" style="rhombus;whiteSpace=wrap;html=1;" vertex="1" parent="1">
          <mxGeometry x="609" y="-170" width="80" height="80" as="geometry" />
        </mxCell>
        <mxCell id="2Ezgl_Kn0kOIbZCHp2xk-114" value="start_date" style="ellipse;whiteSpace=wrap;html=1;" vertex="1" parent="1">
          <mxGeometry x="235" y="110" width="80" height="40" as="geometry" />
        </mxCell>
        <mxCell id="2Ezgl_Kn0kOIbZCHp2xk-115" value="" style="endArrow=none;html=1;rounded=0;entryX=0.5;entryY=1;entryDx=0;entryDy=0;exitX=0.5;exitY=0;exitDx=0;exitDy=0;" edge="1" target="2Ezgl_Kn0kOIbZCHp2xk-114" parent="1" source="2Ezgl_Kn0kOIbZCHp2xk-1">
          <mxGeometry width="50" height="50" relative="1" as="geometry">
            <mxPoint x="385" y="230" as="sourcePoint" />
            <mxPoint x="435" y="165" as="targetPoint" />
          </mxGeometry>
        </mxCell>
        <mxCell id="2Ezgl_Kn0kOIbZCHp2xk-116" value="end_date" style="ellipse;whiteSpace=wrap;html=1;" vertex="1" parent="1">
          <mxGeometry x="295" y="70" width="80" height="40" as="geometry" />
        </mxCell>
        <mxCell id="2Ezgl_Kn0kOIbZCHp2xk-117" value="" style="endArrow=none;html=1;rounded=0;entryX=0.5;entryY=1;entryDx=0;entryDy=0;exitX=0.5;exitY=0;exitDx=0;exitDy=0;" edge="1" target="2Ezgl_Kn0kOIbZCHp2xk-116" parent="1" source="2Ezgl_Kn0kOIbZCHp2xk-1">
          <mxGeometry width="50" height="50" relative="1" as="geometry">
            <mxPoint x="444" y="190" as="sourcePoint" />
            <mxPoint x="494" y="125" as="targetPoint" />
          </mxGeometry>
        </mxCell>
        <mxCell id="2Ezgl_Kn0kOIbZCHp2xk-142" value="frequency" style="ellipse;whiteSpace=wrap;html=1;" vertex="1" parent="1">
          <mxGeometry x="469" y="90" width="80" height="40" as="geometry" />
        </mxCell>
        <mxCell id="2Ezgl_Kn0kOIbZCHp2xk-143" value="" style="endArrow=none;html=1;rounded=0;entryX=0.5;entryY=1;entryDx=0;entryDy=0;exitX=0.5;exitY=0;exitDx=0;exitDy=0;" edge="1" parent="1" source="2Ezgl_Kn0kOIbZCHp2xk-1" target="2Ezgl_Kn0kOIbZCHp2xk-142">
          <mxGeometry width="50" height="50" relative="1" as="geometry">
            <mxPoint x="415" y="290" as="sourcePoint" />
            <mxPoint x="425" y="170" as="targetPoint" />
          </mxGeometry>
        </mxCell>
        <mxCell id="2Ezgl_Kn0kOIbZCHp2xk-144" style="edgeStyle=orthogonalEdgeStyle;rounded=0;orthogonalLoop=1;jettySize=auto;html=1;entryX=0;entryY=0.5;entryDx=0;entryDy=0;" edge="1" parent="1" source="2Ezgl_Kn0kOIbZCHp2xk-145" target="2Ezgl_Kn0kOIbZCHp2xk-66">
          <mxGeometry relative="1" as="geometry">
            <mxPoint x="640" y="770" as="targetPoint" />
          </mxGeometry>
        </mxCell>
        <mxCell id="2Ezgl_Kn0kOIbZCHp2xk-145" value="CompletedEvents" style="rounded=0;whiteSpace=wrap;html=1;" vertex="1" parent="1">
          <mxGeometry x="340" y="740" width="120" height="60" as="geometry" />
        </mxCell>
        <mxCell id="2Ezgl_Kn0kOIbZCHp2xk-146" value="" style="endArrow=none;html=1;rounded=0;exitX=0.5;exitY=0;exitDx=0;exitDy=0;entryX=0.5;entryY=1;entryDx=0;entryDy=0;" edge="1" parent="1" source="2Ezgl_Kn0kOIbZCHp2xk-145" target="2Ezgl_Kn0kOIbZCHp2xk-147">
          <mxGeometry width="50" height="50" relative="1" as="geometry">
            <mxPoint x="394" y="740" as="sourcePoint" />
            <mxPoint x="390" y="680" as="targetPoint" />
          </mxGeometry>
        </mxCell>
        <mxCell id="2Ezgl_Kn0kOIbZCHp2xk-147" value="title" style="ellipse;whiteSpace=wrap;html=1;" vertex="1" parent="1">
          <mxGeometry x="150" y="680" width="80" height="40" as="geometry" />
        </mxCell>
        <mxCell id="2Ezgl_Kn0kOIbZCHp2xk-148" value="start_time" style="ellipse;whiteSpace=wrap;html=1;" vertex="1" parent="1">
          <mxGeometry x="110" y="600" width="80" height="40" as="geometry" />
        </mxCell>
        <mxCell id="2Ezgl_Kn0kOIbZCHp2xk-149" value="end_time" style="ellipse;whiteSpace=wrap;html=1;" vertex="1" parent="1">
          <mxGeometry x="220" y="630" width="80" height="40" as="geometry" />
        </mxCell>
        <mxCell id="2Ezgl_Kn0kOIbZCHp2xk-150" value="description&amp;nbsp;" style="ellipse;whiteSpace=wrap;html=1;" vertex="1" parent="1">
          <mxGeometry x="360" y="570" width="80" height="40" as="geometry" />
        </mxCell>
        <mxCell id="2Ezgl_Kn0kOIbZCHp2xk-151" value="location" style="ellipse;whiteSpace=wrap;html=1;" vertex="1" parent="1">
          <mxGeometry x="490" y="610" width="80" height="40" as="geometry" />
        </mxCell>
        <mxCell id="2Ezgl_Kn0kOIbZCHp2xk-152" value="timezone" style="ellipse;whiteSpace=wrap;html=1;" vertex="1" parent="1">
          <mxGeometry x="550" y="660" width="80" height="40" as="geometry" />
        </mxCell>
        <mxCell id="2Ezgl_Kn0kOIbZCHp2xk-153" value="" style="endArrow=none;html=1;rounded=0;exitX=0.5;exitY=0;exitDx=0;exitDy=0;entryX=0.5;entryY=1;entryDx=0;entryDy=0;" edge="1" parent="1" source="2Ezgl_Kn0kOIbZCHp2xk-145" target="2Ezgl_Kn0kOIbZCHp2xk-148">
          <mxGeometry width="50" height="50" relative="1" as="geometry">
            <mxPoint x="390" y="730" as="sourcePoint" />
            <mxPoint x="440" y="680" as="targetPoint" />
          </mxGeometry>
        </mxCell>
        <mxCell id="2Ezgl_Kn0kOIbZCHp2xk-154" value="" style="endArrow=none;html=1;rounded=0;entryX=0.5;entryY=1;entryDx=0;entryDy=0;" edge="1" parent="1" target="2Ezgl_Kn0kOIbZCHp2xk-149">
          <mxGeometry width="50" height="50" relative="1" as="geometry">
            <mxPoint x="400" y="740" as="sourcePoint" />
            <mxPoint x="450" y="675" as="targetPoint" />
          </mxGeometry>
        </mxCell>
        <mxCell id="2Ezgl_Kn0kOIbZCHp2xk-155" value="" style="endArrow=none;html=1;rounded=0;entryX=0.5;entryY=1;entryDx=0;entryDy=0;exitX=0.5;exitY=0;exitDx=0;exitDy=0;" edge="1" parent="1" source="2Ezgl_Kn0kOIbZCHp2xk-145" target="2Ezgl_Kn0kOIbZCHp2xk-150">
          <mxGeometry width="50" height="50" relative="1" as="geometry">
            <mxPoint x="440" y="720" as="sourcePoint" />
            <mxPoint x="430" y="680" as="targetPoint" />
          </mxGeometry>
        </mxCell>
        <mxCell id="2Ezgl_Kn0kOIbZCHp2xk-156" value="" style="endArrow=none;html=1;rounded=0;exitX=0.5;exitY=0;exitDx=0;exitDy=0;entryX=0.5;entryY=1;entryDx=0;entryDy=0;" edge="1" parent="1" source="2Ezgl_Kn0kOIbZCHp2xk-145" target="2Ezgl_Kn0kOIbZCHp2xk-151">
          <mxGeometry width="50" height="50" relative="1" as="geometry">
            <mxPoint x="400" y="750" as="sourcePoint" />
            <mxPoint x="330" y="670" as="targetPoint" />
          </mxGeometry>
        </mxCell>
        <mxCell id="2Ezgl_Kn0kOIbZCHp2xk-157" value="" style="endArrow=none;html=1;rounded=0;exitX=0.5;exitY=0;exitDx=0;exitDy=0;entryX=0.5;entryY=1;entryDx=0;entryDy=0;" edge="1" parent="1" source="2Ezgl_Kn0kOIbZCHp2xk-145" target="2Ezgl_Kn0kOIbZCHp2xk-152">
          <mxGeometry width="50" height="50" relative="1" as="geometry">
            <mxPoint x="400" y="750" as="sourcePoint" />
            <mxPoint x="560" y="640" as="targetPoint" />
          </mxGeometry>
        </mxCell>
        <mxCell id="2Ezgl_Kn0kOIbZCHp2xk-158" value="Weather" style="ellipse;whiteSpace=wrap;html=1;" vertex="1" parent="1">
          <mxGeometry x="580" y="590" width="80" height="40" as="geometry" />
        </mxCell>
        <mxCell id="2Ezgl_Kn0kOIbZCHp2xk-159" value="" style="endArrow=none;html=1;rounded=0;entryX=0.5;entryY=1;entryDx=0;entryDy=0;exitX=0.5;exitY=0;exitDx=0;exitDy=0;" edge="1" parent="1" source="2Ezgl_Kn0kOIbZCHp2xk-145" target="2Ezgl_Kn0kOIbZCHp2xk-158">
          <mxGeometry width="50" height="50" relative="1" as="geometry">
            <mxPoint x="400" y="740" as="sourcePoint" />
            <mxPoint x="590" y="690" as="targetPoint" />
          </mxGeometry>
        </mxCell>
        <mxCell id="2Ezgl_Kn0kOIbZCHp2xk-162" value="start_date" style="ellipse;whiteSpace=wrap;html=1;" vertex="1" parent="1">
          <mxGeometry x="220" y="560" width="80" height="40" as="geometry" />
        </mxCell>
        <mxCell id="2Ezgl_Kn0kOIbZCHp2xk-163" value="" style="endArrow=none;html=1;rounded=0;entryX=0.5;entryY=1;entryDx=0;entryDy=0;exitX=0.5;exitY=0;exitDx=0;exitDy=0;" edge="1" parent="1" source="2Ezgl_Kn0kOIbZCHp2xk-145" target="2Ezgl_Kn0kOIbZCHp2xk-162">
          <mxGeometry width="50" height="50" relative="1" as="geometry">
            <mxPoint x="370" y="680" as="sourcePoint" />
            <mxPoint x="420" y="615" as="targetPoint" />
          </mxGeometry>
        </mxCell>
        <mxCell id="2Ezgl_Kn0kOIbZCHp2xk-164" value="end_date" style="ellipse;whiteSpace=wrap;html=1;" vertex="1" parent="1">
          <mxGeometry x="280" y="520" width="80" height="40" as="geometry" />
        </mxCell>
        <mxCell id="2Ezgl_Kn0kOIbZCHp2xk-165" value="" style="endArrow=none;html=1;rounded=0;entryX=0.5;entryY=1;entryDx=0;entryDy=0;exitX=0.5;exitY=0;exitDx=0;exitDy=0;" edge="1" parent="1" source="2Ezgl_Kn0kOIbZCHp2xk-145" target="2Ezgl_Kn0kOIbZCHp2xk-164">
          <mxGeometry width="50" height="50" relative="1" as="geometry">
            <mxPoint x="429" y="640" as="sourcePoint" />
            <mxPoint x="479" y="575" as="targetPoint" />
          </mxGeometry>
        </mxCell>
        <mxCell id="2Ezgl_Kn0kOIbZCHp2xk-166" value="frequency" style="ellipse;whiteSpace=wrap;html=1;" vertex="1" parent="1">
          <mxGeometry x="454" y="540" width="80" height="40" as="geometry" />
        </mxCell>
        <mxCell id="2Ezgl_Kn0kOIbZCHp2xk-167" value="" style="endArrow=none;html=1;rounded=0;entryX=0.5;entryY=1;entryDx=0;entryDy=0;exitX=0.5;exitY=0;exitDx=0;exitDy=0;" edge="1" parent="1" source="2Ezgl_Kn0kOIbZCHp2xk-145" target="2Ezgl_Kn0kOIbZCHp2xk-166">
          <mxGeometry width="50" height="50" relative="1" as="geometry">
            <mxPoint x="400" y="740" as="sourcePoint" />
            <mxPoint x="410" y="620" as="targetPoint" />
          </mxGeometry>
        </mxCell>
        <mxCell id="2Ezgl_Kn0kOIbZCHp2xk-168" style="edgeStyle=orthogonalEdgeStyle;rounded=0;orthogonalLoop=1;jettySize=auto;html=1;entryX=0;entryY=0.5;entryDx=0;entryDy=0;" edge="1" parent="1" source="2Ezgl_Kn0kOIbZCHp2xk-169" target="2Ezgl_Kn0kOIbZCHp2xk-108">
          <mxGeometry relative="1" as="geometry">
            <mxPoint x="550" y="-130" as="targetPoint" />
          </mxGeometry>
        </mxCell>
        <mxCell id="2Ezgl_Kn0kOIbZCHp2xk-241" value="" style="edgeStyle=orthogonalEdgeStyle;rounded=0;orthogonalLoop=1;jettySize=auto;html=1;strokeWidth=3;" edge="1" parent="1" source="2Ezgl_Kn0kOIbZCHp2xk-169" target="2Ezgl_Kn0kOIbZCHp2xk-240">
          <mxGeometry relative="1" as="geometry" />
        </mxCell>
        <mxCell id="2Ezgl_Kn0kOIbZCHp2xk-169" value="UpdatedEvents" style="rounded=0;whiteSpace=wrap;html=1;" vertex="1" parent="1">
          <mxGeometry x="250" y="-160" width="120" height="60" as="geometry" />
        </mxCell>
        <mxCell id="2Ezgl_Kn0kOIbZCHp2xk-170" value="" style="endArrow=none;html=1;rounded=0;exitX=0.5;exitY=0;exitDx=0;exitDy=0;entryX=0.5;entryY=1;entryDx=0;entryDy=0;" edge="1" parent="1" source="2Ezgl_Kn0kOIbZCHp2xk-169" target="2Ezgl_Kn0kOIbZCHp2xk-171">
          <mxGeometry width="50" height="50" relative="1" as="geometry">
            <mxPoint x="304" y="-160" as="sourcePoint" />
            <mxPoint x="300" y="-220" as="targetPoint" />
          </mxGeometry>
        </mxCell>
        <mxCell id="2Ezgl_Kn0kOIbZCHp2xk-171" value="title" style="ellipse;whiteSpace=wrap;html=1;" vertex="1" parent="1">
          <mxGeometry x="50" y="-300" width="80" height="40" as="geometry" />
        </mxCell>
        <mxCell id="2Ezgl_Kn0kOIbZCHp2xk-172" value="start_time" style="ellipse;whiteSpace=wrap;html=1;" vertex="1" parent="1">
          <mxGeometry x="30" y="-380" width="80" height="40" as="geometry" />
        </mxCell>
        <mxCell id="2Ezgl_Kn0kOIbZCHp2xk-173" value="end_time" style="ellipse;whiteSpace=wrap;html=1;" vertex="1" parent="1">
          <mxGeometry x="130" y="-340" width="80" height="40" as="geometry" />
        </mxCell>
        <mxCell id="2Ezgl_Kn0kOIbZCHp2xk-174" value="description&amp;nbsp;" style="ellipse;whiteSpace=wrap;html=1;" vertex="1" parent="1">
          <mxGeometry x="270" y="-470" width="80" height="40" as="geometry" />
        </mxCell>
        <mxCell id="2Ezgl_Kn0kOIbZCHp2xk-175" value="location" style="ellipse;whiteSpace=wrap;html=1;" vertex="1" parent="1">
          <mxGeometry x="395" y="-480" width="80" height="40" as="geometry" />
        </mxCell>
        <mxCell id="2Ezgl_Kn0kOIbZCHp2xk-176" value="timezone" style="ellipse;whiteSpace=wrap;html=1;" vertex="1" parent="1">
          <mxGeometry x="534" y="-430" width="80" height="40" as="geometry" />
        </mxCell>
        <mxCell id="2Ezgl_Kn0kOIbZCHp2xk-177" value="" style="endArrow=none;html=1;rounded=0;exitX=0.5;exitY=0;exitDx=0;exitDy=0;entryX=0.5;entryY=1;entryDx=0;entryDy=0;" edge="1" parent="1" source="2Ezgl_Kn0kOIbZCHp2xk-169" target="2Ezgl_Kn0kOIbZCHp2xk-172">
          <mxGeometry width="50" height="50" relative="1" as="geometry">
            <mxPoint x="300" y="-170" as="sourcePoint" />
            <mxPoint x="350" y="-220" as="targetPoint" />
          </mxGeometry>
        </mxCell>
        <mxCell id="2Ezgl_Kn0kOIbZCHp2xk-178" value="" style="endArrow=none;html=1;rounded=0;entryX=0.5;entryY=1;entryDx=0;entryDy=0;" edge="1" parent="1" target="2Ezgl_Kn0kOIbZCHp2xk-173">
          <mxGeometry width="50" height="50" relative="1" as="geometry">
            <mxPoint x="310" y="-160" as="sourcePoint" />
            <mxPoint x="360" y="-225" as="targetPoint" />
          </mxGeometry>
        </mxCell>
        <mxCell id="2Ezgl_Kn0kOIbZCHp2xk-179" value="" style="endArrow=none;html=1;rounded=0;entryX=0.5;entryY=1;entryDx=0;entryDy=0;exitX=0.5;exitY=0;exitDx=0;exitDy=0;" edge="1" parent="1" source="2Ezgl_Kn0kOIbZCHp2xk-169" target="2Ezgl_Kn0kOIbZCHp2xk-174">
          <mxGeometry width="50" height="50" relative="1" as="geometry">
            <mxPoint x="350" y="-180" as="sourcePoint" />
            <mxPoint x="340" y="-220" as="targetPoint" />
          </mxGeometry>
        </mxCell>
        <mxCell id="2Ezgl_Kn0kOIbZCHp2xk-180" value="" style="endArrow=none;html=1;rounded=0;exitX=0.5;exitY=0;exitDx=0;exitDy=0;entryX=0.5;entryY=1;entryDx=0;entryDy=0;" edge="1" parent="1" source="2Ezgl_Kn0kOIbZCHp2xk-169" target="2Ezgl_Kn0kOIbZCHp2xk-175">
          <mxGeometry width="50" height="50" relative="1" as="geometry">
            <mxPoint x="310" y="-150" as="sourcePoint" />
            <mxPoint x="240" y="-230" as="targetPoint" />
          </mxGeometry>
        </mxCell>
        <mxCell id="2Ezgl_Kn0kOIbZCHp2xk-181" value="" style="endArrow=none;html=1;rounded=0;exitX=0.5;exitY=0;exitDx=0;exitDy=0;entryX=0.5;entryY=1;entryDx=0;entryDy=0;" edge="1" parent="1" source="2Ezgl_Kn0kOIbZCHp2xk-169" target="2Ezgl_Kn0kOIbZCHp2xk-176">
          <mxGeometry width="50" height="50" relative="1" as="geometry">
            <mxPoint x="310" y="-150" as="sourcePoint" />
            <mxPoint x="470" y="-260" as="targetPoint" />
          </mxGeometry>
        </mxCell>
        <mxCell id="2Ezgl_Kn0kOIbZCHp2xk-182" value="Weather" style="ellipse;whiteSpace=wrap;html=1;" vertex="1" parent="1">
          <mxGeometry x="440" y="-410" width="80" height="40" as="geometry" />
        </mxCell>
        <mxCell id="2Ezgl_Kn0kOIbZCHp2xk-183" value="" style="endArrow=none;html=1;rounded=0;entryX=0.5;entryY=1;entryDx=0;entryDy=0;exitX=0.5;exitY=0;exitDx=0;exitDy=0;" edge="1" parent="1" source="2Ezgl_Kn0kOIbZCHp2xk-169" target="2Ezgl_Kn0kOIbZCHp2xk-182">
          <mxGeometry width="50" height="50" relative="1" as="geometry">
            <mxPoint x="310" y="-160" as="sourcePoint" />
            <mxPoint x="500" y="-210" as="targetPoint" />
          </mxGeometry>
        </mxCell>
        <mxCell id="2Ezgl_Kn0kOIbZCHp2xk-186" value="start_date" style="ellipse;whiteSpace=wrap;html=1;" vertex="1" parent="1">
          <mxGeometry x="130" y="-470" width="80" height="40" as="geometry" />
        </mxCell>
        <mxCell id="2Ezgl_Kn0kOIbZCHp2xk-187" value="" style="endArrow=none;html=1;rounded=0;entryX=0.5;entryY=1;entryDx=0;entryDy=0;exitX=0.5;exitY=0;exitDx=0;exitDy=0;" edge="1" parent="1" source="2Ezgl_Kn0kOIbZCHp2xk-169" target="2Ezgl_Kn0kOIbZCHp2xk-186">
          <mxGeometry width="50" height="50" relative="1" as="geometry">
            <mxPoint x="280" y="-220" as="sourcePoint" />
            <mxPoint x="330" y="-285" as="targetPoint" />
          </mxGeometry>
        </mxCell>
        <mxCell id="2Ezgl_Kn0kOIbZCHp2xk-188" value="end_date" style="ellipse;whiteSpace=wrap;html=1;" vertex="1" parent="1">
          <mxGeometry x="190" y="-420" width="80" height="40" as="geometry" />
        </mxCell>
        <mxCell id="2Ezgl_Kn0kOIbZCHp2xk-189" value="" style="endArrow=none;html=1;rounded=0;entryX=0.5;entryY=1;entryDx=0;entryDy=0;exitX=0.5;exitY=0;exitDx=0;exitDy=0;" edge="1" parent="1" source="2Ezgl_Kn0kOIbZCHp2xk-169" target="2Ezgl_Kn0kOIbZCHp2xk-188">
          <mxGeometry width="50" height="50" relative="1" as="geometry">
            <mxPoint x="339" y="-260" as="sourcePoint" />
            <mxPoint x="389" y="-325" as="targetPoint" />
          </mxGeometry>
        </mxCell>
        <mxCell id="2Ezgl_Kn0kOIbZCHp2xk-190" value="frequency" style="ellipse;whiteSpace=wrap;html=1;" vertex="1" parent="1">
          <mxGeometry x="320" y="-420" width="80" height="40" as="geometry" />
        </mxCell>
        <mxCell id="2Ezgl_Kn0kOIbZCHp2xk-191" value="" style="endArrow=none;html=1;rounded=0;entryX=0.5;entryY=1;entryDx=0;entryDy=0;exitX=0.5;exitY=0;exitDx=0;exitDy=0;" edge="1" parent="1" source="2Ezgl_Kn0kOIbZCHp2xk-169" target="2Ezgl_Kn0kOIbZCHp2xk-190">
          <mxGeometry width="50" height="50" relative="1" as="geometry">
            <mxPoint x="310" y="-160" as="sourcePoint" />
            <mxPoint x="320" y="-280" as="targetPoint" />
          </mxGeometry>
        </mxCell>
        <mxCell id="2Ezgl_Kn0kOIbZCHp2xk-194" value="updated_at" style="ellipse;whiteSpace=wrap;html=1;" vertex="1" parent="1">
          <mxGeometry x="549" y="-360" width="80" height="40" as="geometry" />
        </mxCell>
        <mxCell id="2Ezgl_Kn0kOIbZCHp2xk-195" value="is_deleted" style="ellipse;whiteSpace=wrap;html=1;" vertex="1" parent="1">
          <mxGeometry x="549" y="-300" width="80" height="40" as="geometry" />
        </mxCell>
        <mxCell id="2Ezgl_Kn0kOIbZCHp2xk-196" value="User" style="rounded=0;whiteSpace=wrap;html=1;" vertex="1" parent="1">
          <mxGeometry x="-947" y="130" width="120" height="60" as="geometry" />
        </mxCell>
        <mxCell id="2Ezgl_Kn0kOIbZCHp2xk-197" value="user_id" style="ellipse;whiteSpace=wrap;html=1;" vertex="1" parent="1">
          <mxGeometry x="-730" y="-120" width="80" height="40" as="geometry" />
        </mxCell>
        <mxCell id="2Ezgl_Kn0kOIbZCHp2xk-198" value="apple_user_id" style="ellipse;whiteSpace=wrap;html=1;" vertex="1" parent="1">
          <mxGeometry x="-1050" y="340" width="80" height="40" as="geometry" />
        </mxCell>
        <mxCell id="2Ezgl_Kn0kOIbZCHp2xk-199" value="created_at" style="ellipse;whiteSpace=wrap;html=1;" vertex="1" parent="1">
          <mxGeometry x="-960" y="340" width="80" height="40" as="geometry" />
        </mxCell>
        <mxCell id="2Ezgl_Kn0kOIbZCHp2xk-201" value="authentication_provider" style="ellipse;whiteSpace=wrap;html=1;" vertex="1" parent="1">
          <mxGeometry x="-860" y="340" width="160" height="40" as="geometry" />
        </mxCell>
        <mxCell id="2Ezgl_Kn0kOIbZCHp2xk-202" value="is_active" style="ellipse;whiteSpace=wrap;html=1;" vertex="1" parent="1">
          <mxGeometry x="-680" y="340" width="80" height="40" as="geometry" />
        </mxCell>
        <mxCell id="2Ezgl_Kn0kOIbZCHp2xk-203" value="UserProfile" style="rounded=0;whiteSpace=wrap;html=1;" vertex="1" parent="1">
          <mxGeometry x="-440" y="-20" width="120" height="60" as="geometry" />
        </mxCell>
        <mxCell id="2Ezgl_Kn0kOIbZCHp2xk-205" value="updated_at" style="ellipse;whiteSpace=wrap;html=1;" vertex="1" parent="1">
          <mxGeometry x="-620" y="-130" width="80" height="40" as="geometry" />
        </mxCell>
        <mxCell id="2Ezgl_Kn0kOIbZCHp2xk-208" value="email" style="ellipse;whiteSpace=wrap;html=1;" vertex="1" parent="1">
          <mxGeometry x="-620" y="-200" width="80" height="40" as="geometry" />
        </mxCell>
        <mxCell id="2Ezgl_Kn0kOIbZCHp2xk-209" value="first_name" style="ellipse;whiteSpace=wrap;html=1;" vertex="1" parent="1">
          <mxGeometry x="-520" y="-210" width="80" height="40" as="geometry" />
        </mxCell>
        <mxCell id="2Ezgl_Kn0kOIbZCHp2xk-210" value="last_name" style="ellipse;whiteSpace=wrap;html=1;" vertex="1" parent="1">
          <mxGeometry x="-430" y="-210" width="80" height="40" as="geometry" />
        </mxCell>
        <mxCell id="2Ezgl_Kn0kOIbZCHp2xk-211" value="profile_picture_url" style="ellipse;whiteSpace=wrap;html=1;" vertex="1" parent="1">
          <mxGeometry x="-370" y="-180" width="160" height="40" as="geometry" />
        </mxCell>
        <mxCell id="2Ezgl_Kn0kOIbZCHp2xk-212" value="phone_number" style="ellipse;whiteSpace=wrap;html=1;" vertex="1" parent="1">
          <mxGeometry x="-190" y="-110" width="130" height="40" as="geometry" />
        </mxCell>
        <mxCell id="2Ezgl_Kn0kOIbZCHp2xk-214" value="locale" style="ellipse;whiteSpace=wrap;html=1;" vertex="1" parent="1">
          <mxGeometry x="-270" y="-130" width="80" height="40" as="geometry" />
        </mxCell>
        <mxCell id="2Ezgl_Kn0kOIbZCHp2xk-215" value="" style="endArrow=none;html=1;rounded=0;exitX=0.5;exitY=0;exitDx=0;exitDy=0;entryX=0.5;entryY=1;entryDx=0;entryDy=0;" edge="1" parent="1" source="2Ezgl_Kn0kOIbZCHp2xk-203" target="2Ezgl_Kn0kOIbZCHp2xk-197">
          <mxGeometry width="50" height="50" relative="1" as="geometry">
            <mxPoint x="-360" y="70" as="sourcePoint" />
            <mxPoint x="-310" y="20" as="targetPoint" />
          </mxGeometry>
        </mxCell>
        <mxCell id="2Ezgl_Kn0kOIbZCHp2xk-217" value="" style="endArrow=none;html=1;rounded=0;entryX=0.5;entryY=1;entryDx=0;entryDy=0;exitX=0.5;exitY=0;exitDx=0;exitDy=0;" edge="1" parent="1" source="2Ezgl_Kn0kOIbZCHp2xk-203" target="2Ezgl_Kn0kOIbZCHp2xk-205">
          <mxGeometry width="50" height="50" relative="1" as="geometry">
            <mxPoint x="-380" y="-20" as="sourcePoint" />
            <mxPoint x="-520" y="-90" as="targetPoint" />
          </mxGeometry>
        </mxCell>
        <mxCell id="2Ezgl_Kn0kOIbZCHp2xk-218" value="" style="endArrow=none;html=1;rounded=0;entryX=0.5;entryY=1;entryDx=0;entryDy=0;exitX=0.5;exitY=0;exitDx=0;exitDy=0;" edge="1" parent="1" source="2Ezgl_Kn0kOIbZCHp2xk-203" target="2Ezgl_Kn0kOIbZCHp2xk-208">
          <mxGeometry width="50" height="50" relative="1" as="geometry">
            <mxPoint x="-370" y="-10" as="sourcePoint" />
            <mxPoint x="-417" y="-90" as="targetPoint" />
          </mxGeometry>
        </mxCell>
        <mxCell id="2Ezgl_Kn0kOIbZCHp2xk-219" value="" style="endArrow=none;html=1;rounded=0;entryX=0.5;entryY=1;entryDx=0;entryDy=0;exitX=0.5;exitY=0;exitDx=0;exitDy=0;" edge="1" parent="1" source="2Ezgl_Kn0kOIbZCHp2xk-203" target="2Ezgl_Kn0kOIbZCHp2xk-212">
          <mxGeometry width="50" height="50" relative="1" as="geometry">
            <mxPoint x="-370" y="-10" as="sourcePoint" />
            <mxPoint x="-310" y="-90" as="targetPoint" />
          </mxGeometry>
        </mxCell>
        <mxCell id="2Ezgl_Kn0kOIbZCHp2xk-220" value="" style="endArrow=none;html=1;rounded=0;entryX=0.5;entryY=1;entryDx=0;entryDy=0;exitX=0.5;exitY=0;exitDx=0;exitDy=0;" edge="1" parent="1" source="2Ezgl_Kn0kOIbZCHp2xk-203" target="2Ezgl_Kn0kOIbZCHp2xk-209">
          <mxGeometry width="50" height="50" relative="1" as="geometry">
            <mxPoint x="-390" y="-60" as="sourcePoint" />
            <mxPoint x="-570" y="-150" as="targetPoint" />
          </mxGeometry>
        </mxCell>
        <mxCell id="2Ezgl_Kn0kOIbZCHp2xk-221" value="" style="endArrow=none;html=1;rounded=0;entryX=0.5;entryY=1;entryDx=0;entryDy=0;exitX=0.5;exitY=0;exitDx=0;exitDy=0;" edge="1" parent="1" source="2Ezgl_Kn0kOIbZCHp2xk-203" target="2Ezgl_Kn0kOIbZCHp2xk-210">
          <mxGeometry width="50" height="50" relative="1" as="geometry">
            <mxPoint x="-370" y="-10" as="sourcePoint" />
            <mxPoint x="-470" y="-160" as="targetPoint" />
          </mxGeometry>
        </mxCell>
        <mxCell id="2Ezgl_Kn0kOIbZCHp2xk-222" value="" style="endArrow=none;html=1;rounded=0;entryX=0.5;entryY=1;entryDx=0;entryDy=0;exitX=0.5;exitY=0;exitDx=0;exitDy=0;" edge="1" parent="1" source="2Ezgl_Kn0kOIbZCHp2xk-203" target="2Ezgl_Kn0kOIbZCHp2xk-211">
          <mxGeometry width="50" height="50" relative="1" as="geometry">
            <mxPoint x="-370" y="-10" as="sourcePoint" />
            <mxPoint x="-380" y="-160" as="targetPoint" />
          </mxGeometry>
        </mxCell>
        <mxCell id="2Ezgl_Kn0kOIbZCHp2xk-223" value="" style="endArrow=none;html=1;rounded=0;entryX=0.5;entryY=1;entryDx=0;entryDy=0;exitX=0.5;exitY=0;exitDx=0;exitDy=0;" edge="1" parent="1" source="2Ezgl_Kn0kOIbZCHp2xk-203" target="2Ezgl_Kn0kOIbZCHp2xk-214">
          <mxGeometry width="50" height="50" relative="1" as="geometry">
            <mxPoint x="-370" y="-10" as="sourcePoint" />
            <mxPoint x="-280" y="-130" as="targetPoint" />
          </mxGeometry>
        </mxCell>
        <mxCell id="2Ezgl_Kn0kOIbZCHp2xk-224" value="" style="endArrow=classic;html=1;rounded=0;exitX=0;exitY=0.5;exitDx=0;exitDy=0;entryX=1;entryY=0.5;entryDx=0;entryDy=0;" edge="1" parent="1" source="2Ezgl_Kn0kOIbZCHp2xk-17" target="2Ezgl_Kn0kOIbZCHp2xk-27">
          <mxGeometry width="50" height="50" relative="1" as="geometry">
            <mxPoint x="760" y="420" as="sourcePoint" />
            <mxPoint x="810" y="370" as="targetPoint" />
          </mxGeometry>
        </mxCell>
        <mxCell id="2Ezgl_Kn0kOIbZCHp2xk-225" value="" style="endArrow=classic;html=1;rounded=0;exitX=0;exitY=0.5;exitDx=0;exitDy=0;entryX=1;entryY=0.5;entryDx=0;entryDy=0;" edge="1" parent="1" source="2Ezgl_Kn0kOIbZCHp2xk-17" target="2Ezgl_Kn0kOIbZCHp2xk-66">
          <mxGeometry width="50" height="50" relative="1" as="geometry">
            <mxPoint x="830" y="330" as="sourcePoint" />
            <mxPoint x="750" y="330" as="targetPoint" />
          </mxGeometry>
        </mxCell>
        <mxCell id="2Ezgl_Kn0kOIbZCHp2xk-226" value="" style="endArrow=classic;html=1;rounded=0;exitX=0;exitY=0.5;exitDx=0;exitDy=0;entryX=1;entryY=0.5;entryDx=0;entryDy=0;" edge="1" parent="1" source="2Ezgl_Kn0kOIbZCHp2xk-17" target="2Ezgl_Kn0kOIbZCHp2xk-108">
          <mxGeometry width="50" height="50" relative="1" as="geometry">
            <mxPoint x="830" y="330" as="sourcePoint" />
            <mxPoint x="750" y="330" as="targetPoint" />
          </mxGeometry>
        </mxCell>
        <mxCell id="2Ezgl_Kn0kOIbZCHp2xk-227" value="" style="endArrow=none;html=1;rounded=0;entryX=0.5;entryY=0;entryDx=0;entryDy=0;exitX=0.5;exitY=1;exitDx=0;exitDy=0;" edge="1" parent="1" source="2Ezgl_Kn0kOIbZCHp2xk-196" target="2Ezgl_Kn0kOIbZCHp2xk-198">
          <mxGeometry width="50" height="50" relative="1" as="geometry">
            <mxPoint x="-1600" y="360" as="sourcePoint" />
            <mxPoint x="-1345" y="310" as="targetPoint" />
          </mxGeometry>
        </mxCell>
        <mxCell id="2Ezgl_Kn0kOIbZCHp2xk-228" value="" style="endArrow=none;html=1;rounded=0;entryX=0.5;entryY=0;entryDx=0;entryDy=0;exitX=0.5;exitY=1;exitDx=0;exitDy=0;" edge="1" parent="1" source="2Ezgl_Kn0kOIbZCHp2xk-196" target="2Ezgl_Kn0kOIbZCHp2xk-199">
          <mxGeometry width="50" height="50" relative="1" as="geometry">
            <mxPoint x="-890" y="490" as="sourcePoint" />
            <mxPoint x="-1000" y="390" as="targetPoint" />
          </mxGeometry>
        </mxCell>
        <mxCell id="2Ezgl_Kn0kOIbZCHp2xk-229" value="" style="endArrow=none;html=1;rounded=0;entryX=0.5;entryY=0;entryDx=0;entryDy=0;exitX=0.5;exitY=1;exitDx=0;exitDy=0;" edge="1" parent="1" source="2Ezgl_Kn0kOIbZCHp2xk-196" target="2Ezgl_Kn0kOIbZCHp2xk-201">
          <mxGeometry width="50" height="50" relative="1" as="geometry">
            <mxPoint x="-890" y="490" as="sourcePoint" />
            <mxPoint x="-910" y="390" as="targetPoint" />
          </mxGeometry>
        </mxCell>
        <mxCell id="2Ezgl_Kn0kOIbZCHp2xk-230" value="" style="endArrow=none;html=1;rounded=0;entryX=0.5;entryY=0;entryDx=0;entryDy=0;exitX=0.5;exitY=1;exitDx=0;exitDy=0;" edge="1" parent="1" source="2Ezgl_Kn0kOIbZCHp2xk-196" target="2Ezgl_Kn0kOIbZCHp2xk-202">
          <mxGeometry width="50" height="50" relative="1" as="geometry">
            <mxPoint x="-890" y="490" as="sourcePoint" />
            <mxPoint x="-770" y="390" as="targetPoint" />
          </mxGeometry>
        </mxCell>
        <mxCell id="2Ezgl_Kn0kOIbZCHp2xk-231" value="is" style="rhombus;whiteSpace=wrap;html=1;rounded=0;strokeWidth=3;" vertex="1" parent="1">
          <mxGeometry x="-840" y="-30" width="80" height="80" as="geometry" />
        </mxCell>
        <mxCell id="2Ezgl_Kn0kOIbZCHp2xk-233" value="" style="endArrow=none;html=1;rounded=0;entryX=0;entryY=0.5;entryDx=0;entryDy=0;exitX=0.5;exitY=0;exitDx=0;exitDy=0;" edge="1" parent="1" source="2Ezgl_Kn0kOIbZCHp2xk-196" target="2Ezgl_Kn0kOIbZCHp2xk-231">
          <mxGeometry width="50" height="50" relative="1" as="geometry">
            <mxPoint x="-450" y="180" as="sourcePoint" />
            <mxPoint x="-560" y="80" as="targetPoint" />
          </mxGeometry>
        </mxCell>
        <mxCell id="2Ezgl_Kn0kOIbZCHp2xk-236" value="" style="endArrow=none;html=1;rounded=0;exitX=0.5;exitY=0;exitDx=0;exitDy=0;entryX=0.5;entryY=1;entryDx=0;entryDy=0;" edge="1" parent="1" source="2Ezgl_Kn0kOIbZCHp2xk-169" target="2Ezgl_Kn0kOIbZCHp2xk-194">
          <mxGeometry width="50" height="50" relative="1" as="geometry">
            <mxPoint x="320" y="-150" as="sourcePoint" />
            <mxPoint x="584" y="-380" as="targetPoint" />
          </mxGeometry>
        </mxCell>
        <mxCell id="2Ezgl_Kn0kOIbZCHp2xk-237" value="" style="endArrow=none;html=1;rounded=0;exitX=0.5;exitY=0;exitDx=0;exitDy=0;entryX=0.5;entryY=1;entryDx=0;entryDy=0;" edge="1" parent="1" source="2Ezgl_Kn0kOIbZCHp2xk-169" target="2Ezgl_Kn0kOIbZCHp2xk-195">
          <mxGeometry width="50" height="50" relative="1" as="geometry">
            <mxPoint x="320" y="-150" as="sourcePoint" />
            <mxPoint x="599" y="-310" as="targetPoint" />
          </mxGeometry>
        </mxCell>
        <mxCell id="2Ezgl_Kn0kOIbZCHp2xk-240" value="belongs to" style="rhombus;whiteSpace=wrap;html=1;rounded=0;strokeWidth=3;" vertex="1" parent="1">
          <mxGeometry x="70" y="-170" width="80" height="80" as="geometry" />
        </mxCell>
        <mxCell id="2Ezgl_Kn0kOIbZCHp2xk-242" value="" style="endArrow=none;html=1;rounded=0;entryX=0;entryY=0.5;entryDx=0;entryDy=0;exitX=1;exitY=0.5;exitDx=0;exitDy=0;edgeStyle=elbowEdgeStyle;" edge="1" parent="1" source="2Ezgl_Kn0kOIbZCHp2xk-203" target="2Ezgl_Kn0kOIbZCHp2xk-240">
          <mxGeometry width="50" height="50" relative="1" as="geometry">
            <mxPoint x="-50" y="-40" as="sourcePoint" />
            <mxPoint y="-90" as="targetPoint" />
            <Array as="points">
              <mxPoint x="-30" y="-70" />
            </Array>
          </mxGeometry>
        </mxCell>
        <mxCell id="2Ezgl_Kn0kOIbZCHp2xk-243" value="" style="edgeStyle=orthogonalEdgeStyle;rounded=0;orthogonalLoop=1;jettySize=auto;html=1;strokeWidth=3;exitX=0;exitY=0.5;exitDx=0;exitDy=0;" edge="1" target="2Ezgl_Kn0kOIbZCHp2xk-244" parent="1" source="2Ezgl_Kn0kOIbZCHp2xk-1">
          <mxGeometry relative="1" as="geometry">
            <mxPoint x="260" y="330" as="sourcePoint" />
          </mxGeometry>
        </mxCell>
        <mxCell id="2Ezgl_Kn0kOIbZCHp2xk-244" value="belongs to" style="rhombus;whiteSpace=wrap;html=1;rounded=0;strokeWidth=3;" vertex="1" parent="1">
          <mxGeometry x="80" y="280" width="80" height="80" as="geometry" />
        </mxCell>
        <mxCell id="2Ezgl_Kn0kOIbZCHp2xk-245" value="" style="endArrow=none;html=1;rounded=0;entryX=0;entryY=0.5;entryDx=0;entryDy=0;exitX=1;exitY=0.5;exitDx=0;exitDy=0;edgeStyle=elbowEdgeStyle;" edge="1" parent="1" source="2Ezgl_Kn0kOIbZCHp2xk-203" target="2Ezgl_Kn0kOIbZCHp2xk-244">
          <mxGeometry width="50" height="50" relative="1" as="geometry">
            <mxPoint x="-310" y="20" as="sourcePoint" />
            <mxPoint x="80" y="-120" as="targetPoint" />
            <Array as="points">
              <mxPoint x="-120" y="70" />
            </Array>
          </mxGeometry>
        </mxCell>
        <mxCell id="2Ezgl_Kn0kOIbZCHp2xk-246" value="" style="edgeStyle=orthogonalEdgeStyle;rounded=0;orthogonalLoop=1;jettySize=auto;html=1;strokeWidth=3;exitX=0;exitY=0.5;exitDx=0;exitDy=0;" edge="1" target="2Ezgl_Kn0kOIbZCHp2xk-247" parent="1" source="2Ezgl_Kn0kOIbZCHp2xk-145">
          <mxGeometry relative="1" as="geometry">
            <mxPoint x="315" y="770" as="sourcePoint" />
          </mxGeometry>
        </mxCell>
        <mxCell id="2Ezgl_Kn0kOIbZCHp2xk-247" value="belongs to" style="rhombus;whiteSpace=wrap;html=1;rounded=0;strokeWidth=3;" vertex="1" parent="1">
          <mxGeometry x="40" y="730" width="80" height="80" as="geometry" />
        </mxCell>
        <mxCell id="2Ezgl_Kn0kOIbZCHp2xk-248" value="" style="endArrow=none;html=1;rounded=0;entryX=0;entryY=0.5;entryDx=0;entryDy=0;exitX=1;exitY=0.5;exitDx=0;exitDy=0;edgeStyle=elbowEdgeStyle;" edge="1" parent="1" source="2Ezgl_Kn0kOIbZCHp2xk-203" target="2Ezgl_Kn0kOIbZCHp2xk-247">
          <mxGeometry width="50" height="50" relative="1" as="geometry">
            <mxPoint x="-310" y="20" as="sourcePoint" />
            <mxPoint x="90" y="330" as="targetPoint" />
            <Array as="points">
              <mxPoint x="-170" y="390" />
            </Array>
          </mxGeometry>
        </mxCell>
      </root>
    </mxGraphModel>
  </diagram>
</mxfile>
